<?xml version="1.0" standalone="no"?>
<!DOCTYPE svg PUBLIC "-//W3C//DTD SVG 20010904//EN"
 "http://www.w3.org/TR/2001/REC-SVG-20010904/DTD/svg10.dtd">
<svg version="1.0" xmlns="http://www.w3.org/2000/svg"
 width="1200.000000pt" height="1200.000000pt" viewBox="0 0 1200.000000 1200.000000"
 preserveAspectRatio="xMidYMid meet">
<metadata>
Created by potrace 1.11, written by Peter Selinger 2001-2013
</metadata>
<g transform="translate(0.000000,1200.000000) scale(0.100000,-0.100000)"
fill="#000000" stroke="none">
<path d="M7100 10705 c-124 -25 -263 -82 -360 -148 -120 -82 -4989 -3663
-5018 -3690 -56 -53 -110 -147 -144 -247 -37 -111 -37 -65 -13 -945 8 -291 15
-565 15 -607 l0 -77 -57 -5 c-285 -29 -493 -100 -702 -240 -521 -349 -745
-1001 -550 -1599 147 -451 522 -801 982 -917 225 -57 443 -60 662 -9 50 12 99
23 111 26 16 4 24 -3 35 -29 26 -63 129 -206 200 -277 128 -128 294 -222 479
-273 74 -20 107 -23 260 -22 146 0 188 4 252 22 191 52 357 149 493 288 l80
82 280 -235 c375 -314 498 -394 716 -467 293 -98 629 -65 874 87 39 24 922
677 1964 1452 l1895 1409 35 -45 c67 -84 206 -216 285 -269 146 -98 331 -172
505 -201 109 -19 311 -14 428 10 540 112 926 541 984 1093 25 238 -36 513
-162 730 -119 205 -329 395 -545 494 -44 20 -81 39 -84 41 -3 3 -17 392 -32
866 l-27 861 -31 80 c-65 166 -132 268 -230 353 -66 58 -2519 2055 -2626 2139
-244 190 -503 285 -771 283 -65 0 -147 -7 -183 -14z m363 -425 c82 -20 188
-70 271 -125 28 -19 312 -247 631 -507 320 -260 916 -746 1325 -1080 779 -634
777 -632 816 -743 26 -74 25 -209 -2 -255 -28 -48 -4977 -3685 -5074 -3729
-79 -35 -150 -51 -233 -51 -132 1 -291 54 -415 139 -63 44 -2523 2041 -2669
2168 -90 78 -135 172 -141 292 -4 72 -1 96 15 132 19 41 177 159 2498 1864
1363 1001 2492 1829 2509 1839 17 11 67 32 111 48 102 35 240 39 358 8z m3327
-4425 c98 -25 259 -107 342 -174 156 -125 261 -291 310 -488 30 -121 30 -312
-1 -428 -86 -323 -330 -568 -649 -652 -120 -32 -306 -36 -414 -10 -335 81
-576 308 -675 634 -23 78 -26 106 -27 238 -1 163 14 246 69 369 114 258 361
458 640 520 90 20 312 15 405 -9z m-9027 -1320 c205 -36 367 -122 522 -279
132 -134 204 -259 250 -432 22 -83 35 -222 28 -302 -13 -156 91 -264 238 -248
250 27 341 17 474 -52 98 -50 210 -164 258 -259 184 -372 -30 -807 -433 -879
-133 -24 -241 -8 -377 57 -169 80 -294 252 -327 449 -9 54 -47 111 -94 144
-33 24 -56 31 -105 34 -58 4 -70 1 -159 -42 -152 -73 -264 -99 -433 -100 -169
0 -270 21 -413 89 -118 56 -198 113 -283 201 -118 124 -196 262 -241 425 -20
71 -23 108 -23 244 0 177 16 262 75 392 68 149 203 312 334 402 104 72 296
146 421 164 70 10 209 6 288 -8z"/>
<path d="M6525 8984 c-582 -44 -1068 -194 -1519 -469 -253 -154 -531 -399
-684 -606 -349 -468 -425 -965 -217 -1417 123 -266 392 -522 705 -671 143 -68
251 -107 405 -146 l130 -33 136 -337 c116 -285 143 -343 175 -376 55 -56 108
-79 182 -79 73 0 124 19 171 63 18 18 140 192 271 387 l237 355 134 32 c818
196 1503 707 1776 1324 189 431 157 873 -92 1249 -75 113 -259 292 -390 379
-258 171 -564 280 -917 325 -117 16 -410 27 -503 20z m332 -515 c535 -44 944
-260 1107 -585 55 -110 70 -181 69 -324 0 -142 -23 -240 -92 -385 -220 -466
-823 -873 -1502 -1014 -80 -16 -157 -34 -171 -40 -52 -20 -102 -79 -229 -267
-71 -106 -134 -196 -138 -199 -5 -2 -41 75 -80 173 -61 152 -78 185 -114 219
-58 56 -66 59 -234 92 -186 37 -308 77 -449 146 -353 172 -538 443 -520 760 7
126 34 223 97 350 300 605 1173 1066 2056 1084 40 0 130 -4 200 -10z"/>
<path d="M6856 8065 c-124 -34 -250 -126 -291 -211 -55 -115 -16 -224 100
-282 161 -80 398 -40 541 91 64 58 90 98 103 157 22 100 -39 196 -153 239 -67
25 -219 28 -300 6z"/>
<path d="M6240 7600 c-310 -48 -490 -315 -316 -467 121 -107 381 -101 553 13
169 113 202 297 70 394 -71 52 -198 77 -307 60z"/>
<path d="M5491 7110 c-283 -75 -413 -320 -244 -459 59 -49 122 -66 243 -66 83
0 119 5 172 23 170 58 279 175 279 297 0 61 -16 97 -63 141 -85 81 -231 104
-387 64z"/>
<path d="M10330 5764 c-173 -37 -329 -159 -416 -326 -58 -113 0 -228 116 -228
62 0 104 28 135 91 38 75 110 142 178 168 68 25 162 27 222 6 118 -43 215 14
215 125 0 90 -54 135 -198 165 -83 18 -167 18 -252 -1z"/>
<path d="M10934 5560 c-47 -24 -84 -81 -84 -131 1 -73 74 -149 144 -149 45 0
109 36 131 72 74 126 -61 274 -191 208z"/>
<path d="M987 3949 c-148 -35 -237 -173 -206 -319 44 -205 301 -279 450 -130
109 109 103 280 -11 384 -67 60 -153 84 -233 65z"/>
</g>
</svg>
