<svg width="156" height="126" viewBox="0 0 156 126" fill="none" xmlns="http://www.w3.org/2000/svg">
<path d="M141.763 64.6832C141.807 66.3287 141.454 67.9606 140.734 69.4409C140.014 70.9213 138.949 72.2067 137.628 73.1885L73.4926 120.881C69.0481 124.146 63.1892 123.609 58.1099 119.471L27.4193 93.8738C25.8962 92.6033 24.6627 91.0213 23.802 89.2343C22.9413 87.4473 22.4732 85.4967 22.4294 83.5137L21.7246 56.6751L89.7345 33.0309C94.3202 29.6592 100.376 30.2143 105.62 34.4875L140.955 38.8041L141.763 64.6832Z" fill="#8359FE" stroke="black" stroke-width="5.83015" stroke-linecap="round" stroke-linejoin="round"/>
<path d="M139.323 44.9818L73.5657 93.284C69.342 96.3842 63.7824 95.8737 58.9638 91.9445L24.4164 63.799C21.1834 61.1658 20.6754 55.2575 23.5053 53.1794L88.9906 5.07762C93.3482 1.87606 99.0937 2.40341 104.075 6.46057L138.423 34.4431C141.626 37.057 142.127 42.9195 139.323 44.9818Z" fill="#B68CFF" stroke="black" stroke-width="5.53515" stroke-linecap="round" stroke-linejoin="round"/>
<path d="M67.4141 96.895V122.722" stroke="black" stroke-width="5.83015" stroke-linecap="round" stroke-linejoin="round"/>
<path d="M75.5591 28.5345C61.0839 32.9851 52.1019 44.3082 55.4809 53.861C57.5746 59.7741 63.9054 63.672 71.8531 64.7786L75.9742 75.0132L82.9735 64.5686C84.6109 64.2933 86.2298 63.9177 87.8211 63.4439C102.296 59.1237 111.284 47.7064 107.897 37.9811C104.514 28.275 90.0343 24.0622 75.5591 28.5345Z" fill="white" stroke="black" stroke-width="6.77366" stroke-linecap="round" stroke-linejoin="round"/>
<path d="M76.258 48.906C78.0331 50.2142 77.6639 52.542 75.4362 54.0867C73.2085 55.6314 69.9454 55.8184 68.1424 54.4922C66.395 53.207 66.7643 50.8863 68.9582 49.3658C71.2197 47.797 74.4828 47.6003 76.258 48.906Z" fill="black"/>
<path d="M85.3771 42.5628C87.1523 43.8722 86.783 46.2072 84.5553 47.7592C82.3276 49.3111 79.0645 49.5029 77.2616 48.1743C75.5142 46.8879 75.8835 44.56 78.0774 43.0334C80.3413 41.4598 83.5995 41.2547 85.3771 42.5628Z" fill="black"/>
<path d="M94.4928 36.1893C96.268 37.501 95.8987 39.8422 93.671 41.4013C91.4433 42.9605 88.179 43.1487 86.3749 41.8213C84.6275 40.5336 84.9967 38.201 87.1906 36.6647C89.4545 35.0851 92.7176 34.8787 94.4928 36.1893Z" fill="black"/>
<path d="M48.8086 104.73C48.4911 103.325 47.8999 101.996 47.0688 100.819C46.2377 99.6423 45.1829 98.6407 43.9648 97.8715C42.7466 97.1023 41.3888 96.5807 39.969 96.3362C38.5492 96.0918 37.0951 96.1294 35.6898 96.4469C35.5414 96.4807 35.3966 96.5181 35.2518 96.5579C35.5538 93.0568 34.675 89.5553 32.7557 86.6116C30.8363 83.6679 27.9868 81.4515 24.6614 80.3155C21.3359 79.1795 17.7259 79.1894 14.4067 80.3437C11.0875 81.4979 8.25025 83.73 6.34711 86.6842C4.44398 89.6384 3.58452 93.1446 3.90573 96.6441C4.22695 100.143 5.71035 103.435 8.11948 105.993C10.5286 108.551 13.7248 110.23 17.1987 110.76C20.6725 111.291 24.224 110.644 27.2871 108.921C27.3221 109.136 27.3619 109.351 27.4078 109.566C27.713 110.983 28.2961 112.326 29.1236 113.517C29.9511 114.708 31.0064 115.723 32.2286 116.503C33.4508 117.284 34.8156 117.814 36.2441 118.064C37.6725 118.314 39.1363 118.278 40.5507 117.958C41.9652 117.638 43.3022 117.041 44.4846 116.202C45.6669 115.362 46.6711 114.297 47.439 113.067C48.2069 111.837 48.7234 110.466 48.9585 109.036C49.1935 107.605 49.1426 106.141 48.8086 104.73Z" fill="white" stroke="black" stroke-width="5.83015" stroke-linecap="round" stroke-linejoin="round"/>
<path d="M151.951 82.0599C154.959 74.8469 151.551 66.561 144.338 63.5526C137.125 60.5442 128.839 63.9527 125.83 71.1656C122.822 78.3786 126.231 86.6646 133.443 89.6729C140.656 92.6813 148.942 89.2728 151.951 82.0599Z" fill="white" stroke="black" stroke-width="4.38565" stroke-linecap="round" stroke-linejoin="round"/>
<path d="M131.748 71.7249C132.38 70.21 133.588 69.0081 135.106 68.3837C136.624 67.7593 138.328 67.7635 139.843 68.3954" stroke="black" stroke-width="3.83633" stroke-linecap="round" stroke-linejoin="round"/>
<path d="M146 71.2471C146.319 70.4813 145.958 69.6015 145.192 69.2821C144.426 68.9627 143.546 69.3246 143.227 70.0904C142.907 70.8562 143.269 71.736 144.035 72.0554C144.801 72.3748 145.681 72.0129 146 71.2471Z" fill="black" stroke="black" stroke-width="0.958765" stroke-miterlimit="10"/>
<path d="M12.1341 96.8585C13.8003 96.8585 15.151 95.5078 15.151 93.8416C15.151 92.1754 13.8003 90.8247 12.1341 90.8247C10.4679 90.8247 9.11719 92.1754 9.11719 93.8416C9.11719 95.5078 10.4679 96.8585 12.1341 96.8585Z" fill="black" stroke="black" stroke-width="1.11262" stroke-miterlimit="10"/>
</svg>
